:SAMPLES-PER-SECOND 30
:FULLY-SPECIFIED
:DEGREES
1
root  1.98255 40.9568 -3.45776 -173.072 -81.7088 169.476
RightUpLeg  1.07209 -8.68912 -6.36261
RightLeg  6.78848 0.934701 3.42832
RightFoot  -2.91564 0.0568738 -1.13977
RightToes  0.000482159 0.542163 -0.142577
Spine  8.41324 -0.574121 -1.81241
Spine1  -1.58135 -0.760045 0.804865
HEad  7.37596 -6.88903 0.057788
LeftShoulder1  0.832787 -0.968257 -11.3219
LeftArm  -24.0789 15.2483 -13.2524
LeftForeArm  -0.697131 -0.351304 1.2369
LeftHand  -0.25398 0.0180481 5.50724
RightShoulder  0.467307 -0.384423 7.41291
RightArm  -18.7343 -4.81895 7.10872
RightForeArm  -2.4879 2.62701 3.55196
RightHand  -4.04951 11.8849 -27.1732
LeftUpLeg  4.09346 5.81388 2.5924
LeftLeg  1.41746 23.731 -4.51095
LeftFoot  -2.3633 0.0480296 -0.448435
LeftToes  1.06247e-005 4.65854e-005 -8.18501e-006
2
root  1.97379 40.9568 -3.45116 -173.122 -81.6619 169.492
RightUpLeg  1.10627 -8.69894 -6.38291
RightLeg  6.81166 0.98257 3.42266
RightFoot  -2.93252 0.0588075 -1.16982
RightToes  0.000482159 0.542163 -0.142577
Spine  8.5193 -0.554552 -1.78681
Spine1  -1.66368 -0.736257 0.791108
HEad  7.45305 -6.88721 0.00628079
LeftShoulder1  0.844189 -1.0065 -11.4273
LeftArm  -24.0389 15.2601 -13.1211
LeftForeArm  -0.728671 -0.315305 1.23722
LeftHand  -0.25398 0.0180481 5.50724
RightShoulder  0.468888 -0.353998 7.29643
RightArm  -18.759 -4.85912 7.16343
RightForeArm  -2.41502 2.60717 3.53042
RightHand  -4.05492 11.8782 -27.2175
LeftUpLeg  4.14448 5.83375 2.59217
LeftLeg  1.43235 23.7468 -4.53105
LeftFoot  -2.40263 0.0477732 -0.444451
LeftToes  1.06247e-005 4.65854e-005 -8.18501e-006
3
root  1.95082 40.9568 -3.43943 -173.149 -81.5721 169.471
RightUpLeg  1.16599 -8.71813 -6.42638
RightLeg  6.83758 1.09104 3.41699
RightFoot  -2.96426 0.0630555 -1.23585
RightToes  0.000482159 0.542163 -0.142577
Spine  8.64351 -0.520129 -1.74316
Spine1  -1.77335 -0.687398 0.730871
HEad  7.65209 -6.92934 -0.0374348
LeftShoulder1  0.87077 -1.12009 -11.5594
LeftArm  -23.9273 15.3744 -12.892
LeftForeArm  -0.826009 -0.311718 1.21401
LeftHand  -0.25398 0.0180481 5.50724
RightShoulder  0.479538 -0.257199 7.18576
RightArm  -18.7265 -4.97132 7.13221
RightForeArm  -2.30317 2.63449 3.52406
RightHand  -4.02097 11.7927 -27.1285
LeftUpLeg  4.25844 5.8319 2.56865
LeftLeg  1.39531 23.823 -4.56154
LeftFoot  -2.4389 0.0516552 -0.50478
LeftToes  1.06247e-005 4.65854e-005 -8.18501e-006
4
root  1.91932 40.9568 -3.42669 -172.982 -81.5048 169.307
RightUpLeg  1.19741 -8.75236 -6.50316
RightLeg  6.83762 1.23188 3.42648
RightFoot  -3.00289 0.0597029 -1.18374
RightToes  0.000482159 0.542163 -0.142577
Spine  8.6787 -0.507387 -1.68869
Spine1  -1.83673 -0.63859 0.542623
HEad  7.86076 -7.03632 0.00520538
LeftShoulder1  0.880719 -1.19798 -11.4517
LeftArm  -23.8536 15.5352 -12.8321
LeftForeArm  -0.84514 -0.355618 1.19226
LeftHand  -0.25398 0.0180481 5.50724
RightShoulder  0.503555 -0.129999 7.35992
RightArm  -18.5731 -5.06435 6.83532
RightForeArm  -2.37655 2.68762 3.5716
RightHand  -3.99991 11.7695 -27.0286
LeftUpLeg  4.33668 5.76866 2.48097
LeftLeg  1.31534 23.9627 -4.55973
LeftFoot  -2.4322 0.0540445 -0.541912
LeftToes  1.06247e-005 4.65854e-005 -8.18501e-006
5
root  1.88744 40.9566 -3.41566 -172.693 -81.4746 169.072
RightUpLeg  1.17447 -8.78237 -6.57741
RightLeg  6.85353 1.31081 3.42824
RightFoot  -3.04581 0.0525801 -1.07304
RightToes  0.000482159 0.542163 -0.142577
Spine  8.71327 -0.505232 -1.68954
Spine1  -1.93279 -0.604488 0.354576
HEad  8.00842 -7.12969 0.08427
LeftShoulder1  0.857472 -1.14791 -11.1213
LeftArm  -23.9206 15.6181 -13.0002
LeftForeArm  -0.675726 -0.380777 1.2198
LeftHand  -0.25398 0.0180481 5.50724
RightShoulder  0.525261 -0.0490823 7.67431
RightArm  -18.3882 -5.10439 6.44732
RightForeArm  -2.60195 2.70966 3.63619
RightHand  -4.04228 11.8929 -27.1152
LeftUpLeg  4.36288 5.71141 2.39142
LeftLeg  1.23027 24.0702 -4.57431
LeftFoot  -2.44404 0.0509266 -0.493457
LeftToes  1.06247e-005 4.65854e-005 -8.18501e-006
6
root  1.85789 40.9549 -3.4079 -172.522 -81.4747 168.971
RightUpLeg  1.10919 -8.78406 -6.58961
RightLeg  6.92351 1.27145 3.39619
RightFoot  -3.10598 0.0541392 -1.09727
RightToes  0.000482159 0.542163 -0.142577
Spine  8.81756 -0.480793 -1.8115
Spine1  -2.10987 -0.594288 0.407179
HEad  8.12916 -7.16962 0.0844989
LeftShoulder1  0.834212 -1.06524 -10.9261
LeftArm  -24.0279 15.6122 -13.1038
LeftForeArm  -0.448217 -0.361888 1.27433
LeftHand  -0.25398 0.0180481 5.50724
RightShoulder  0.52644 -0.0502321 7.71736
RightArm  -18.3599 -5.16918 6.31424
RightForeArm  -2.71636 2.6967 3.63846
RightHand  -4.09888 12.015 -27.2929
LeftUpLeg  4.3602 5.73934 2.39077
LeftLeg  1.21917 24.0331 -4.63833
LeftFoot  -2.59601 0.0517789 -0.506703
LeftToes  1.06247e-005 4.65854e-005 -8.18501e-006
7
root  1.82791 40.9494 -3.39838 -172.525 -81.5406 169.056
RightUpLeg  1.03246 -8.79238 -6.56796
RightLeg  7.01816 1.2019 3.37289
RightFoot  -3.20363 0.056915 -1.14041
RightToes  0.000482159 0.542163 -0.142577
Spine  8.89262 -0.454962 -1.95863
Spine1  -2.21984 -0.613221 0.641588
HEad  8.21652 -7.25585 0.00222499
LeftShoulder1  0.847754 -1.1011 -11.093
LeftArm  -23.9929 15.5726 -12.9018
LeftForeArm  -0.379769 -0.341168 1.27945
LeftHand  -0.25398 0.0180481 5.50724
RightShoulder  0.504614 -0.139708 7.44317
RightArm  -18.5228 -5.26827 6.46539
RightForeArm  -2.63347 2.6701 3.56955
RightHand  -4.09838 11.9919 -27.3237
LeftUpLeg  4.25165 5.80612 2.44965
LeftLeg  1.46092 23.8744 -4.61672
LeftFoot  -2.96548 0.0672525 -0.747181
LeftToes  1.06247e-005 4.65854e-005 -8.18501e-006
8
root  1.79466 40.9374 -3.37558 -172.564 -81.6685 169.163
RightUpLeg  0.977134 -8.88181 -6.61696
RightLeg  7.1466 1.22527 3.41616
RightFoot  -3.36069 0.0450487 -0.973667
RightToes  0.000482159 0.542163 -0.142577
Spine  8.89806 -0.464745 -1.95203
Spine1  -2.13364 -0.636315 0.72464
HEad  8.18572 -7.44347 -0.0463764
LeftShoulder1  0.884573 -1.22952 -11.4056
LeftArm  -23.8576 15.4929 -12.5837
LeftForeArm  -0.499159 -0.329102 1.23327
LeftHand  -0.25398 0.0180481 5.50724
RightShoulder  0.472232 -0.311032 7.20927
RightArm  -18.6791 -5.30477 6.60035
RightForeArm  -2.50728 2.63436 3.50911
RightHand  -4.05299 11.8934 -27.1827
LeftUpLeg  3.98695 5.81198 2.4493
LeftLeg  2.0672 23.7539 -4.36915
LeftFoot  -3.53799 0.0905178 -1.10878
LeftToes  1.06247e-005 4.65854e-005 -8.18501e-006
9
root  1.75549 40.9168 -3.33276 -172.612 -81.7236 169.181
RightUpLeg  0.960862 -9.07163 -6.77
RightLeg  7.4315 1.39066 3.48687
RightFoot  -3.63247 0.0260271 -0.753018
RightToes  0.000482159 0.542163 -0.142577
Spine  9.01728 -0.46845 -1.8006
Spine1  -1.99619 -0.606751 0.552306
HEad  8.06065 -7.56848 -0.0169581
LeftShoulder1  0.904592 -1.30993 -11.5228
LeftArm  -23.8499 15.3885 -12.5084
LeftForeArm  -0.639412 -0.28743 1.22751
LeftHand  -0.25398 0.0180481 5.50724
RightShoulder  0.44831 -0.471387 7.20034
RightArm  -18.6719 -5.28663 6.53372
RightForeArm  -2.4513 2.60397 3.50669
RightHand  -4.02085 11.8446 -27.0508
LeftUpLeg  3.71366 5.78311 2.3531
LeftLeg  2.92545 23.7808 -3.97184
LeftFoot  -4.25491 0.103906 -1.31687
LeftToes  1.06247e-005 4.65854e-005 -8.18501e-006
10
root  1.7051 40.8887 -3.27413 -172.719 -81.592 169.12
RightUpLeg  0.993087 -9.31559 -6.97868
RightLeg  7.91293 1.75247 3.49553
RightFoot  -4.08118 0.0111303 -0.612594
RightToes  0.000482159 0.542163 -0.142577
Spine  9.36957 -0.39955 -1.70345
Spine1  -2.00266 -0.505485 0.354455
HEad  8.01586 -7.46811 0.00362759
LeftShoulder1  0.901244 -1.31575 -11.4215
LeftArm  -24.0252 15.3814 -12.7061
LeftForeArm  -0.635231 -0.248784 1.29822
LeftHand  -0.25398 0.0180481 5.50724
RightShoulder  0.448895 -0.482134 7.28017
RightArm  -18.6086 -5.34955 6.3657
RightForeArm  -2.46215 2.62571 3.51933
RightHand  -4.01613 11.8313 -27.0405
LeftUpLeg  3.59827 5.86207 2.21303
LeftLeg  3.84782 23.8586 -3.57515
LeftFoot  -5.04872 0.101754 -1.29611
LeftToes  1.06247e-005 4.65854e-005 -8.18501e-006
11
root  1.63567 40.856 -3.2024 -172.749 -81.3989 168.915
RightUpLeg  1.11226 -9.59377 -7.26025
RightLeg  8.41117 2.33444 3.45939
RightFoot  -4.67931 -0.0242488 -0.124063
RightToes  0.000482159 0.542163 -0.142577
Spine  9.75478 -0.301935 -1.71894
Spine1  -2.03285 -0.396586 0.234903
HEad  8.15594 -7.29392 -0.027952
LeftShoulder1  0.902117 -1.33571 -11.3574
LeftArm  -24.2137 15.5182 -12.9011
LeftForeArm  -0.456086 -0.343334 1.36746
LeftHand  -0.25398 0.0180481 5.50724
RightShoulder  0.46852 -0.37089 7.39159
RightArm  -18.6945 -5.51678 6.25629
RightForeArm  -2.56955 2.74658 3.49502
RightHand  -4.02603 11.8112 -27.1334
LeftUpLeg  3.58772 6.06231 2.0305
LeftLeg  4.77981 23.8184 -3.1664
LeftFoot  -5.86612 0.0960254 -1.27181
LeftToes  1.06247e-005 4.65854e-005 -8.18501e-006
12
root  1.53812 40.822 -3.1087 -172.477 -81.396 168.427
RightUpLeg  1.37931 -9.96074 -7.70197
RightLeg  8.75804 2.95275 3.48599
RightFoot  -5.32334 -0.0868385 0.966915
RightToes  0.000482159 0.542163 -0.142577
Spine  9.89928 -0.294274 -1.67005
Spine1  -1.80644 -0.357555 0.0247503
HEad  8.44805 -7.34383 -0.0346043
LeftShoulder1  0.926484 -1.41974 -11.5547
LeftArm  -24.3529 15.6547 -12.9177
LeftForeArm  -0.207116 -0.657214 1.38343
LeftHand  -0.25398 0.0180481 5.50724
RightShoulder  0.482859 -0.322095 7.64154
RightArm  -18.9948 -5.71682 6.31608
RightForeArm  -2.88543 3.00916 3.44354
RightHand  -4.0688 11.8618 -27.33
LeftUpLeg  3.57002 6.24374 1.759
LeftLeg  5.70701 23.6 -2.68465
LeftFoot  -6.72918 0.0998024 -1.47846
LeftToes  1.06247e-005 4.65854e-005 -8.18501e-006
13
root  1.40348 40.7909 -2.98476 -171.845 -81.6568 167.601
RightUpLeg  1.82216 -10.4426 -8.29693
RightLeg  8.97955 3.36056 3.58722
RightFoot  -5.9678 -0.138547 2.08351
RightToes  0.000482159 0.542163 -0.142577
Spine  9.78325 -0.399683 -1.48148
Spine1  -1.32063 -0.394482 -0.323972
HEad  8.94503 -7.63629 0.0189345
LeftShoulder1  0.979805 -1.57525 -12.0802
LeftArm  -24.6174 15.7304 -12.8233
LeftForeArm  0.0603695 -1.21682 1.40889
LeftHand  -0.25398 0.0180481 5.50724
RightShoulder  0.488518 -0.355153 8.02005
RightArm  -19.4533 -6.09193 6.67713
RightForeArm  -3.59491 3.48595 3.40135
RightHand  -4.17115 12.0626 -27.6755
LeftUpLeg  3.62422 6.38087 1.41839
LeftLeg  6.50177 23.2084 -2.22866
LeftFoot  -7.73573 0.104821 -1.85796
LeftToes  1.06247e-005 4.65854e-005 -8.18501e-006
14
root  1.22762 40.7639 -2.83493 -170.965 -82.0616 166.511
RightUpLeg  2.40676 -10.9012 -8.92296
RightLeg  9.14044 3.56596 3.64799
RightFoot  -6.62915 -0.162684 2.85698
RightToes  0.000482159 0.542163 -0.142577
Spine  9.55442 -0.526644 -1.31804
Spine1  -0.823579 -0.461132 -0.61041
HEad  9.85202 -7.94154 0.0482728
LeftShoulder1  1.07244 -1.83893 -12.9447
LeftArm  -25.1796 15.949 -12.7285
LeftForeArm  0.585838 -2.14878 1.51174
LeftHand  -0.25398 0.0180481 5.50724
RightShoulder  0.514581 -0.267763 8.45048
RightArm  -19.9894 -6.95839 7.42522
RightForeArm  -4.89388 4.26275 3.39825
RightHand  -4.30681 12.3229 -28.1304
LeftUpLeg  3.8574 6.52059 1.06916
LeftLeg  7.11797 22.7022 -1.90589
LeftFoot  -8.93725 0.0985926 -2.13428
LeftToes  1.06247e-005 4.65854e-005 -8.18501e-006
15
root  1.01445 40.7337 -2.66532 -169.844 -82.5452 165.166
RightUpLeg  3.04422 -11.2066 -9.50158
RightLeg  9.28071 3.70474 3.56322
RightFoot  -7.25095 -0.183811 3.76948
RightToes  0.000482159 0.542163 -0.142577
Spine  9.26805 -0.617571 -1.28484
Spine1  -0.390793 -0.527417 -0.749537
HEad  11.2696 -8.22179 0.00803342
LeftShoulder1  1.21142 -2.21476 -14.1705
LeftArm  -26.0956 16.4572 -12.716
LeftForeArm  1.70051 -3.62168 1.68086
LeftHand  -0.25398 0.0180481 5.50724
RightShoulder  0.576177 0.00217315 9.04647
RightArm  -20.4964 -8.39506 8.50612
RightForeArm  -6.58224 5.3372 3.45432
RightHand  -4.40414 12.4613 -28.5207
LeftUpLeg  4.17343 6.63539 0.691304
LeftLeg  7.72608 22.1215 -1.61384
LeftFoot  -10.2235 0.0828032 -2.1817
LeftToes  1.06247e-005 4.65854e-005 -8.18501e-006
